<mxfile host="Electron" modified="2024-05-20T21:09:04.074Z" agent="Mozilla/5.0 (Macintosh; Intel Mac OS X 10_15_7) AppleWebKit/537.36 (KHTML, like Gecko) draw.io/24.4.0 Chrome/120.0.6099.109 Electron/28.1.0 Safari/537.36" etag="k0e_tMFEqIqzp-6O08Xi" version="24.4.0" type="device">
  <diagram name="Page-1" id="LWu_jjJh8i8bNf0-HXPk">
    <mxGraphModel dx="3006" dy="824" grid="1" gridSize="10" guides="1" tooltips="1" connect="1" arrows="1" fold="1" page="1" pageScale="1" pageWidth="850" pageHeight="1100" math="0" shadow="0">
      <root>
        <mxCell id="0" />
        <mxCell id="1" parent="0" />
        <mxCell id="OLUZ0jjAAW3gg7zv8Eic-54" value="" style="rounded=0;whiteSpace=wrap;html=1;fillColor=#dae8fc;strokeColor=#6c8ebf;" vertex="1" parent="1">
          <mxGeometry x="-590" y="230" width="255" height="90" as="geometry" />
        </mxCell>
        <mxCell id="OLUZ0jjAAW3gg7zv8Eic-29" value="" style="rounded=0;whiteSpace=wrap;html=1;fillColor=#ffe6cc;strokeColor=#d79b00;" vertex="1" parent="1">
          <mxGeometry x="45" y="200" width="255" height="380" as="geometry" />
        </mxCell>
        <mxCell id="OLUZ0jjAAW3gg7zv8Eic-1" value="You have [] points." style="text;html=1;align=left;verticalAlign=middle;whiteSpace=wrap;rounded=0;" vertex="1" parent="1">
          <mxGeometry x="60" y="210" width="200" height="30" as="geometry" />
        </mxCell>
        <mxCell id="OLUZ0jjAAW3gg7zv8Eic-25" style="edgeStyle=orthogonalEdgeStyle;rounded=0;orthogonalLoop=1;jettySize=auto;html=1;entryX=0;entryY=0.5;entryDx=0;entryDy=0;" edge="1" parent="1" source="OLUZ0jjAAW3gg7zv8Eic-2" target="OLUZ0jjAAW3gg7zv8Eic-12">
          <mxGeometry relative="1" as="geometry" />
        </mxCell>
        <mxCell id="OLUZ0jjAAW3gg7zv8Eic-2" value="1. Create New Goal" style="text;html=1;align=left;verticalAlign=middle;whiteSpace=wrap;rounded=0;" vertex="1" parent="1">
          <mxGeometry x="60" y="260" width="110" height="30" as="geometry" />
        </mxCell>
        <mxCell id="OLUZ0jjAAW3gg7zv8Eic-33" style="edgeStyle=orthogonalEdgeStyle;rounded=0;orthogonalLoop=1;jettySize=auto;html=1;" edge="1" parent="1" source="OLUZ0jjAAW3gg7zv8Eic-3" target="OLUZ0jjAAW3gg7zv8Eic-30">
          <mxGeometry relative="1" as="geometry" />
        </mxCell>
        <mxCell id="OLUZ0jjAAW3gg7zv8Eic-3" value="2. List Goals" style="text;html=1;align=left;verticalAlign=middle;whiteSpace=wrap;rounded=0;" vertex="1" parent="1">
          <mxGeometry x="60" y="310" width="80" height="30" as="geometry" />
        </mxCell>
        <mxCell id="OLUZ0jjAAW3gg7zv8Eic-56" style="edgeStyle=orthogonalEdgeStyle;rounded=0;orthogonalLoop=1;jettySize=auto;html=1;entryX=1;entryY=0.5;entryDx=0;entryDy=0;" edge="1" parent="1" source="OLUZ0jjAAW3gg7zv8Eic-4" target="OLUZ0jjAAW3gg7zv8Eic-48">
          <mxGeometry relative="1" as="geometry" />
        </mxCell>
        <mxCell id="OLUZ0jjAAW3gg7zv8Eic-4" value="3. Save Goals" style="text;html=1;align=left;verticalAlign=middle;whiteSpace=wrap;rounded=0;" vertex="1" parent="1">
          <mxGeometry x="60" y="360" width="80" height="30" as="geometry" />
        </mxCell>
        <mxCell id="OLUZ0jjAAW3gg7zv8Eic-5" value="4. load Goals" style="text;html=1;align=left;verticalAlign=middle;whiteSpace=wrap;rounded=0;" vertex="1" parent="1">
          <mxGeometry x="60" y="410" width="90" height="30" as="geometry" />
        </mxCell>
        <mxCell id="OLUZ0jjAAW3gg7zv8Eic-59" style="edgeStyle=orthogonalEdgeStyle;rounded=0;orthogonalLoop=1;jettySize=auto;html=1;entryX=1;entryY=0.5;entryDx=0;entryDy=0;" edge="1" parent="1" source="OLUZ0jjAAW3gg7zv8Eic-6" target="OLUZ0jjAAW3gg7zv8Eic-58">
          <mxGeometry relative="1" as="geometry" />
        </mxCell>
        <mxCell id="OLUZ0jjAAW3gg7zv8Eic-6" value="5. Record Event" style="text;html=1;align=left;verticalAlign=middle;whiteSpace=wrap;rounded=0;" vertex="1" parent="1">
          <mxGeometry x="60" y="460" width="100" height="30" as="geometry" />
        </mxCell>
        <mxCell id="OLUZ0jjAAW3gg7zv8Eic-7" value="6. Quit" style="text;html=1;align=left;verticalAlign=middle;whiteSpace=wrap;rounded=0;" vertex="1" parent="1">
          <mxGeometry x="60" y="510" width="90" height="30" as="geometry" />
        </mxCell>
        <mxCell id="OLUZ0jjAAW3gg7zv8Eic-13" value="" style="group" vertex="1" connectable="0" parent="1">
          <mxGeometry x="440" y="120" width="220" height="130" as="geometry" />
        </mxCell>
        <mxCell id="OLUZ0jjAAW3gg7zv8Eic-12" value="" style="rounded=0;whiteSpace=wrap;html=1;fillColor=#ffe6cc;strokeColor=#d79b00;container=1;" vertex="1" parent="OLUZ0jjAAW3gg7zv8Eic-13">
          <mxGeometry width="190" height="130" as="geometry" />
        </mxCell>
        <mxCell id="OLUZ0jjAAW3gg7zv8Eic-21" style="edgeStyle=orthogonalEdgeStyle;rounded=0;orthogonalLoop=1;jettySize=auto;html=1;exitX=1;exitY=0.5;exitDx=0;exitDy=0;" edge="1" parent="OLUZ0jjAAW3gg7zv8Eic-13" source="OLUZ0jjAAW3gg7zv8Eic-8">
          <mxGeometry relative="1" as="geometry">
            <mxPoint x="330" y="30" as="targetPoint" />
          </mxGeometry>
        </mxCell>
        <mxCell id="OLUZ0jjAAW3gg7zv8Eic-8" value="1. Simple Goal" style="text;html=1;align=left;verticalAlign=middle;whiteSpace=wrap;rounded=0;" vertex="1" parent="OLUZ0jjAAW3gg7zv8Eic-13">
          <mxGeometry x="20" y="30" width="90" height="30" as="geometry" />
        </mxCell>
        <mxCell id="OLUZ0jjAAW3gg7zv8Eic-9" value="2. Eternal Goal" style="text;html=1;align=left;verticalAlign=middle;whiteSpace=wrap;rounded=0;" vertex="1" parent="OLUZ0jjAAW3gg7zv8Eic-13">
          <mxGeometry x="20" y="60" width="100" height="30" as="geometry" />
        </mxCell>
        <mxCell id="OLUZ0jjAAW3gg7zv8Eic-10" value="3. Checklist Goal" style="text;html=1;align=left;verticalAlign=middle;whiteSpace=wrap;rounded=0;" vertex="1" parent="OLUZ0jjAAW3gg7zv8Eic-13">
          <mxGeometry x="20" y="90" width="200" height="30" as="geometry" />
        </mxCell>
        <mxCell id="OLUZ0jjAAW3gg7zv8Eic-11" value="The types of Goals are:" style="text;html=1;align=left;verticalAlign=middle;whiteSpace=wrap;rounded=0;" vertex="1" parent="OLUZ0jjAAW3gg7zv8Eic-13">
          <mxGeometry x="20" width="200" height="30" as="geometry" />
        </mxCell>
        <mxCell id="OLUZ0jjAAW3gg7zv8Eic-22" value="" style="group" vertex="1" connectable="0" parent="1">
          <mxGeometry x="770" y="90" width="280" height="130" as="geometry" />
        </mxCell>
        <mxCell id="OLUZ0jjAAW3gg7zv8Eic-16" value="" style="rounded=0;whiteSpace=wrap;html=1;fillColor=#ffe6cc;strokeColor=#d79b00;container=0;" vertex="1" parent="OLUZ0jjAAW3gg7zv8Eic-22">
          <mxGeometry width="280" height="130" as="geometry" />
        </mxCell>
        <mxCell id="OLUZ0jjAAW3gg7zv8Eic-17" value="What is a short description of your goal?" style="text;html=1;align=left;verticalAlign=middle;whiteSpace=wrap;rounded=0;container=0;" vertex="1" parent="OLUZ0jjAAW3gg7zv8Eic-22">
          <mxGeometry x="20" y="30" width="230" height="30" as="geometry" />
        </mxCell>
        <mxCell id="OLUZ0jjAAW3gg7zv8Eic-18" value="How many points associated with this goal" style="text;html=1;align=left;verticalAlign=middle;whiteSpace=wrap;rounded=0;container=0;" vertex="1" parent="OLUZ0jjAAW3gg7zv8Eic-22">
          <mxGeometry x="20" y="60" width="230" height="30" as="geometry" />
        </mxCell>
        <mxCell id="OLUZ0jjAAW3gg7zv8Eic-20" value="What is the name of your goal?" style="text;html=1;align=left;verticalAlign=middle;whiteSpace=wrap;rounded=0;container=0;" vertex="1" parent="OLUZ0jjAAW3gg7zv8Eic-22">
          <mxGeometry x="20" width="200" height="30" as="geometry" />
        </mxCell>
        <mxCell id="OLUZ0jjAAW3gg7zv8Eic-23" value="Added to List" style="rounded=0;whiteSpace=wrap;html=1;" vertex="1" parent="1">
          <mxGeometry x="1120" y="125" width="120" height="60" as="geometry" />
        </mxCell>
        <mxCell id="OLUZ0jjAAW3gg7zv8Eic-26" style="edgeStyle=orthogonalEdgeStyle;rounded=0;orthogonalLoop=1;jettySize=auto;html=1;entryX=0;entryY=0.5;entryDx=0;entryDy=0;" edge="1" parent="1" source="OLUZ0jjAAW3gg7zv8Eic-16" target="OLUZ0jjAAW3gg7zv8Eic-23">
          <mxGeometry relative="1" as="geometry" />
        </mxCell>
        <mxCell id="OLUZ0jjAAW3gg7zv8Eic-30" value="" style="rounded=0;whiteSpace=wrap;html=1;fillColor=#ffe6cc;strokeColor=#d79b00;" vertex="1" parent="1">
          <mxGeometry x="440" y="290" width="240" height="240" as="geometry" />
        </mxCell>
        <mxCell id="OLUZ0jjAAW3gg7zv8Eic-31" value="The Goals Are:&amp;nbsp;" style="text;html=1;align=left;verticalAlign=middle;whiteSpace=wrap;rounded=0;" vertex="1" parent="1">
          <mxGeometry x="480" y="320" width="130" height="20" as="geometry" />
        </mxCell>
        <mxCell id="OLUZ0jjAAW3gg7zv8Eic-32" value="1. [ ] Give A Talk&lt;br&gt;2. [x] Something else&lt;div&gt;3. [ ] Name (Desc)&lt;/div&gt;&lt;div&gt;4. if checklist goal&lt;br&gt;3. [ ] Name (desc) -- currently completed: 0/3&lt;/div&gt;" style="text;html=1;align=left;verticalAlign=middle;whiteSpace=wrap;rounded=0;" vertex="1" parent="1">
          <mxGeometry x="450" y="360" width="230" height="120" as="geometry" />
        </mxCell>
        <mxCell id="OLUZ0jjAAW3gg7zv8Eic-34" value="" style="group" vertex="1" connectable="0" parent="1">
          <mxGeometry x="770" y="240" width="280" height="130" as="geometry" />
        </mxCell>
        <mxCell id="OLUZ0jjAAW3gg7zv8Eic-35" value="" style="rounded=0;whiteSpace=wrap;html=1;fillColor=#ffe6cc;strokeColor=#d79b00;container=0;" vertex="1" parent="OLUZ0jjAAW3gg7zv8Eic-34">
          <mxGeometry width="280" height="130" as="geometry" />
        </mxCell>
        <mxCell id="OLUZ0jjAAW3gg7zv8Eic-36" value="What is a short description of your goal?" style="text;html=1;align=left;verticalAlign=middle;whiteSpace=wrap;rounded=0;container=0;" vertex="1" parent="OLUZ0jjAAW3gg7zv8Eic-34">
          <mxGeometry x="20" y="30" width="230" height="30" as="geometry" />
        </mxCell>
        <mxCell id="OLUZ0jjAAW3gg7zv8Eic-37" value="How many points associated with this goal" style="text;html=1;align=left;verticalAlign=middle;whiteSpace=wrap;rounded=0;container=0;" vertex="1" parent="OLUZ0jjAAW3gg7zv8Eic-34">
          <mxGeometry x="20" y="60" width="230" height="30" as="geometry" />
        </mxCell>
        <mxCell id="OLUZ0jjAAW3gg7zv8Eic-38" value="What is the name of your goal?" style="text;html=1;align=left;verticalAlign=middle;whiteSpace=wrap;rounded=0;container=0;" vertex="1" parent="OLUZ0jjAAW3gg7zv8Eic-34">
          <mxGeometry x="20" width="200" height="30" as="geometry" />
        </mxCell>
        <mxCell id="OLUZ0jjAAW3gg7zv8Eic-39" style="edgeStyle=orthogonalEdgeStyle;rounded=0;orthogonalLoop=1;jettySize=auto;html=1;entryX=0;entryY=0.5;entryDx=0;entryDy=0;" edge="1" parent="1" source="OLUZ0jjAAW3gg7zv8Eic-9" target="OLUZ0jjAAW3gg7zv8Eic-35">
          <mxGeometry relative="1" as="geometry" />
        </mxCell>
        <mxCell id="OLUZ0jjAAW3gg7zv8Eic-45" style="edgeStyle=orthogonalEdgeStyle;rounded=0;orthogonalLoop=1;jettySize=auto;html=1;entryX=0;entryY=0.5;entryDx=0;entryDy=0;" edge="1" parent="1" source="OLUZ0jjAAW3gg7zv8Eic-10" target="OLUZ0jjAAW3gg7zv8Eic-41">
          <mxGeometry relative="1" as="geometry" />
        </mxCell>
        <mxCell id="OLUZ0jjAAW3gg7zv8Eic-41" value="" style="rounded=0;whiteSpace=wrap;html=1;fillColor=#ffe6cc;strokeColor=#d79b00;container=0;" vertex="1" parent="1">
          <mxGeometry x="770" y="390" width="350" height="230" as="geometry" />
        </mxCell>
        <mxCell id="OLUZ0jjAAW3gg7zv8Eic-42" value="What is a short description of your goal?" style="text;html=1;align=left;verticalAlign=middle;whiteSpace=wrap;rounded=0;container=0;" vertex="1" parent="1">
          <mxGeometry x="790" y="420" width="230" height="30" as="geometry" />
        </mxCell>
        <mxCell id="OLUZ0jjAAW3gg7zv8Eic-43" value="How many points associated with this goal" style="text;html=1;align=left;verticalAlign=middle;whiteSpace=wrap;rounded=0;container=0;" vertex="1" parent="1">
          <mxGeometry x="790" y="450" width="230" height="30" as="geometry" />
        </mxCell>
        <mxCell id="OLUZ0jjAAW3gg7zv8Eic-44" value="What is the name of your goal?" style="text;html=1;align=left;verticalAlign=middle;whiteSpace=wrap;rounded=0;container=0;" vertex="1" parent="1">
          <mxGeometry x="790" y="390" width="200" height="30" as="geometry" />
        </mxCell>
        <mxCell id="OLUZ0jjAAW3gg7zv8Eic-46" value="How many times does this need to be accomplished for a bonus" style="text;html=1;align=left;verticalAlign=middle;whiteSpace=wrap;rounded=0;container=0;" vertex="1" parent="1">
          <mxGeometry x="790" y="480" width="320" height="30" as="geometry" />
        </mxCell>
        <mxCell id="OLUZ0jjAAW3gg7zv8Eic-47" value="What is the bonus for accomplishing it that many times" style="text;html=1;align=left;verticalAlign=middle;whiteSpace=wrap;rounded=0;container=0;" vertex="1" parent="1">
          <mxGeometry x="790" y="520" width="320" height="30" as="geometry" />
        </mxCell>
        <mxCell id="OLUZ0jjAAW3gg7zv8Eic-48" value="" style="rounded=0;whiteSpace=wrap;html=1;fillColor=#ffe6cc;strokeColor=#d79b00;" vertex="1" parent="1">
          <mxGeometry x="-280" y="230" width="255" height="90" as="geometry" />
        </mxCell>
        <mxCell id="OLUZ0jjAAW3gg7zv8Eic-50" value="What is the filename for your goals file?" style="text;html=1;align=left;verticalAlign=middle;whiteSpace=wrap;rounded=0;" vertex="1" parent="1">
          <mxGeometry x="-260" y="260" width="210" height="40" as="geometry" />
        </mxCell>
        <mxCell id="OLUZ0jjAAW3gg7zv8Eic-53" value="Save to File&lt;div&gt;&lt;br&gt;&lt;/div&gt;&lt;div&gt;First line : total points&lt;/div&gt;&lt;div&gt;type, name, desc, points etc&lt;/div&gt;" style="text;html=1;align=left;verticalAlign=middle;whiteSpace=wrap;rounded=0;" vertex="1" parent="1">
          <mxGeometry x="-570" y="260" width="210" height="40" as="geometry" />
        </mxCell>
        <mxCell id="OLUZ0jjAAW3gg7zv8Eic-58" value="List Goals:&lt;div&gt;Which goal did you accomplish? [number]&lt;/div&gt;" style="rounded=0;whiteSpace=wrap;html=1;fillColor=#ffe6cc;strokeColor=#d79b00;" vertex="1" parent="1">
          <mxGeometry x="-335" y="480" width="255" height="90" as="geometry" />
        </mxCell>
        <mxCell id="OLUZ0jjAAW3gg7zv8Eic-60" value="Great Job! you got X points" style="rounded=0;whiteSpace=wrap;html=1;fillColor=#ffe6cc;strokeColor=#d79b00;" vertex="1" parent="1">
          <mxGeometry x="-630" y="480" width="255" height="90" as="geometry" />
        </mxCell>
        <mxCell id="OLUZ0jjAAW3gg7zv8Eic-61" value="Eternal goals are never completed so no X? Maybe somethign else?" style="rounded=0;whiteSpace=wrap;html=1;fillColor=#ffe6cc;strokeColor=#d79b00;" vertex="1" parent="1">
          <mxGeometry x="-930" y="480" width="255" height="90" as="geometry" />
        </mxCell>
        <mxCell id="OLUZ0jjAAW3gg7zv8Eic-62" value="Maybe don&#39;t display completed goals when yo go to record an event&lt;br&gt;&lt;br&gt;Save &quot;completed&quot; state in the file / with the object?&lt;br&gt;&lt;br&gt;Celebration animations?&lt;br&gt;&lt;div&gt;&lt;br/&gt;&lt;/div&gt;" style="rounded=0;whiteSpace=wrap;html=1;fillColor=#fff2cc;strokeColor=#d6b656;" vertex="1" parent="1">
          <mxGeometry x="-500" y="640" width="255" height="260" as="geometry" />
        </mxCell>
      </root>
    </mxGraphModel>
  </diagram>
</mxfile>
